<?xml version="1.0" encoding="utf-8"?>
<!-- Generator: Adobe Illustrator 27.2.0, SVG Export Plug-In . SVG Version: 6.00 Build 0)  -->
<svg version="1.1" id="Layer_1" xmlns="http://www.w3.org/2000/svg" xmlns:xlink="http://www.w3.org/1999/xlink" x="0px" y="0px"
	 viewBox="0 0 81.5 81.5" style="enable-background:new 0 0 81.5 81.5;" xml:space="preserve">
<style type="text/css">
	.st0{fill:#3B497D;}
</style>
<g>
	<path class="st0" d="M40.8,0C18.3,0,0,18.3,0,40.8s18.3,40.8,40.8,40.8s40.8-18.3,40.8-40.8C81.5,18.3,63.3,0,40.8,0z M55.4,30.9
		c0,0.2-0.1,0.5-0.3,0.7L39.3,49.2h14.6c0.8,0,1.5,0.7,1.5,1.5v5.5c0,0.8-0.7,1.5-1.5,1.5H27.2c-0.6,0-1-0.5-1-1v-6.1
		c0-0.2,0.1-0.5,0.3-0.7l15.8-17.7H28.1c-0.8,0-1.5-0.7-1.5-1.5v-5.5c0-0.8,0.7-1.5,1.5-1.5h26.2c0.6,0,1,0.5,1,1L55.4,30.9
		L55.4,30.9z"/>
</g>
</svg>
